<?xml version="1.0" encoding="iso-8859-1"?>
<!-- Uploaded to: SVG Repo, www.svgrepo.com, Generator: SVG Repo Mixer Tools -->
<svg height="800px" width="800px" version="1.1" id="Layer_1" xmlns="http://www.w3.org/2000/svg" xmlns:xlink="http://www.w3.org/1999/xlink" 
	 viewBox="0 0 258.803 258.803" xml:space="preserve">
<g>
	<g>
		<path style="fill:#4EFFBB;" d="M252.831,174.89l-38.269-38.567l35.172-35.435c4.679-4.717,7.244-10.983,7.244-17.661
			c0-6.681-2.565-12.944-7.244-17.661L211.997,27.56c-4.679-4.716-10.907-7.285-17.512-7.285c-6.643,0-12.868,2.565-17.55,7.285
			l-35.169,35.435l-7.434-7.472c-0.152-0.152-14.643-14.453-21.776-15.019c-0.452-0.038-0.867-0.038-1.322,0l-47.212,4.302
			c-5.811-0.263-11.321,1.923-15.434,6.039L30.815,68.772c-7.962,8-7.962,21.096,0,29.096l38.152,38.456l-35.131,35.397
			c-9.661,9.737-9.661,25.55,0,35.286l37.738,38.003c4.679,4.716,10.907,7.32,17.55,7.32c6.605,0,12.83-2.603,17.512-7.32
			l35.134-35.362l38.266,38.57c3.888,3.888,9.019,6.039,14.491,6.039c5.434,0,10.565-2.151,14.453-6.039l43.852-44.191
			C260.794,195.986,260.794,182.931,252.831,174.89z"/>
		<g>
			<g id="XMLID_5_">
				<g>
					<g>
						<path style="fill:#302C58;" d="M90.803,43.529l-20.039,19.85L50.196,43.266l35.776-3.283
							C87.143,40.698,88.918,42.02,90.803,43.529z"/>
					</g>
					<g>
						<path style="fill:#222051;" d="M127.522,183.2l51.552-51.928l18.837,18.968c2.924,2.945,7.685,2.93,10.598-0.029
							c0.035-0.035,0.07-0.073,0.105-0.108c2.863-2.913,2.866-7.577-0.012-10.475l-18.883-19.032l34.501-34.761
							c4.32-4.352,7.302-9.993,7.822-16.102c0.639-7.507-1.953-14.657-7.151-19.896L187.15,11.83
							c-5.236-5.277-12.407-7.863-19.879-7.174c-6.042,0.557-11.599,3.564-15.871,7.869l-34.481,34.74l-7.434-7.472
							c-0.152-0.152-14.643-14.453-21.776-15.019c-0.452-0.038-0.867-0.038-1.322,0L39.18,29.076
							c-5.811-0.263-11.321,1.923-15.434,6.039L5.971,53.041c-7.962,8-7.962,21.096,0,29.096l38.152,38.456L8.989,155.989
							c-9.661,9.737-9.661,25.55,0,35.286l37.738,38.003c4.679,4.716,10.907,7.32,17.55,7.32c6.605,0,12.83-2.603,17.512-7.32
							l35.134-35.362l3.882,3.914c2.942,2.965,7.731,2.974,10.682,0.02l0,0c2.936-2.936,2.945-7.696,0.018-10.644L127.522,183.2z
							 M85.973,39.983c1.17,0.718,2.942,2.037,4.83,3.546l-20.039,19.85L50.196,43.266L85.973,39.983z M16.575,71.457
							c-2.113-2.113-2.113-5.586,0-7.737l16.228-16.341l32.756,32.003c1.471,1.395,3.359,2.113,5.207,2.113
							c1.923,0,3.812-0.718,5.283-2.151l25.964-25.701l4.302,4.34L54.727,109.91L16.575,71.457z M71.181,218.597
							c-3.698,3.698-10.151,3.736-13.814,0c-0.038,0-0.038,0-0.038,0l-37.7-38c-3.812-3.85-3.812-10.075,0-13.925L162.695,22.547
							c1.85-1.888,4.302-2.907,6.943-2.907c2.603,0,5.058,1.019,6.905,2.907l37.7,38.003c1.85,1.85,2.869,4.302,2.869,6.943
							s-1.019,5.096-2.869,6.981L71.181,218.597z"/>
						<path style="fill:#222051;" d="M218.602,159.171c-0.438,0.444-0.876,0.89-1.31,1.334c-2.53,2.574-2.519,6.713,0.026,9.275
							l0.061,0.061c2.113,2.151,2.113,5.624,0,7.737l-43.89,44.191c-2.037,2.075-5.624,2.075-7.661,0l-14.87-14.973
							c-2.571-2.589-6.757-2.595-9.334-0.018c-0.452,0.452-0.902,0.902-1.354,1.354c-2.565,2.565-2.574,6.725-0.018,9.302
							l14.935,15.051c3.888,3.888,9.019,6.039,14.491,6.039c5.434,0,10.565-2.151,14.453-6.039l43.852-44.191
							c7.962-8.038,7.962-21.096,0-29.134l0,0C225.398,156.556,221.175,156.556,218.602,159.171z"/>
					</g>
				</g>
			</g>
		</g>
		<g>
			<path style="fill:#302C58;" d="M214.246,60.55l-37.7-38.003c-1.85-1.888-4.302-2.907-6.905-2.907
				c-2.641,0-5.093,1.019-6.943,2.907L19.631,166.669c-3.812,3.85-3.812,10.075,0,13.925l37.7,38.003c0,0,0,0,0.038,0
				c3.66,3.736,10.113,3.698,13.814,0L214.246,74.475c1.85-1.885,2.869-4.34,2.869-6.981S216.098,62.398,214.246,60.55z
				 M88.924,131.587c-6.22,0-11.26-5.078-11.26-11.342s5.04-11.342,11.26-11.342s11.26,5.078,11.26,11.342
				C100.188,126.508,95.143,131.587,88.924,131.587z M115.903,81.725c6.22,0,11.26,5.078,11.26,11.342s-5.04,11.342-11.26,11.342
				s-11.26-5.078-11.26-11.342S109.684,81.725,115.903,81.725z M116.137,158.999c-6.22,0-11.26-5.078-11.26-11.342
				s5.04-11.342,11.26-11.342s11.26,5.078,11.26,11.342C127.4,153.92,122.356,158.999,116.137,158.999z M143.117,131.823
				c-6.22,0-11.26-5.078-11.26-11.342s5.04-11.342,11.26-11.342s11.26,5.078,11.26,11.342S149.337,131.823,143.117,131.823z"/>
		</g>
	</g>
</g>
</svg>